<?xml version="1.0" encoding="UTF-8"?>
<svg xmlns="http://www.w3.org/2000/svg" xmlns:xlink="http://www.w3.org/1999/xlink" version="1.1" width="250px" height="250px" viewBox="0 0 250 250"><defs><rect id="r0" width="7" height="7" fill="#000000"/></defs><rect x="0" y="0" width="250" height="250" fill="#fefefe"/><use x="37" y="37" xlink:href="#r0"/><use x="44" y="37" xlink:href="#r0"/><use x="51" y="37" xlink:href="#r0"/><use x="58" y="37" xlink:href="#r0"/><use x="65" y="37" xlink:href="#r0"/><use x="72" y="37" xlink:href="#r0"/><use x="79" y="37" xlink:href="#r0"/><use x="93" y="37" xlink:href="#r0"/><use x="121" y="37" xlink:href="#r0"/><use x="149" y="37" xlink:href="#r0"/><use x="163" y="37" xlink:href="#r0"/><use x="170" y="37" xlink:href="#r0"/><use x="177" y="37" xlink:href="#r0"/><use x="184" y="37" xlink:href="#r0"/><use x="191" y="37" xlink:href="#r0"/><use x="198" y="37" xlink:href="#r0"/><use x="205" y="37" xlink:href="#r0"/><use x="37" y="44" xlink:href="#r0"/><use x="79" y="44" xlink:href="#r0"/><use x="100" y="44" xlink:href="#r0"/><use x="107" y="44" xlink:href="#r0"/><use x="114" y="44" xlink:href="#r0"/><use x="121" y="44" xlink:href="#r0"/><use x="128" y="44" xlink:href="#r0"/><use x="135" y="44" xlink:href="#r0"/><use x="163" y="44" xlink:href="#r0"/><use x="205" y="44" xlink:href="#r0"/><use x="37" y="51" xlink:href="#r0"/><use x="51" y="51" xlink:href="#r0"/><use x="58" y="51" xlink:href="#r0"/><use x="65" y="51" xlink:href="#r0"/><use x="79" y="51" xlink:href="#r0"/><use x="93" y="51" xlink:href="#r0"/><use x="100" y="51" xlink:href="#r0"/><use x="107" y="51" xlink:href="#r0"/><use x="128" y="51" xlink:href="#r0"/><use x="135" y="51" xlink:href="#r0"/><use x="142" y="51" xlink:href="#r0"/><use x="163" y="51" xlink:href="#r0"/><use x="177" y="51" xlink:href="#r0"/><use x="184" y="51" xlink:href="#r0"/><use x="191" y="51" xlink:href="#r0"/><use x="205" y="51" xlink:href="#r0"/><use x="37" y="58" xlink:href="#r0"/><use x="51" y="58" xlink:href="#r0"/><use x="58" y="58" xlink:href="#r0"/><use x="65" y="58" xlink:href="#r0"/><use x="79" y="58" xlink:href="#r0"/><use x="93" y="58" xlink:href="#r0"/><use x="100" y="58" xlink:href="#r0"/><use x="107" y="58" xlink:href="#r0"/><use x="114" y="58" xlink:href="#r0"/><use x="128" y="58" xlink:href="#r0"/><use x="135" y="58" xlink:href="#r0"/><use x="163" y="58" xlink:href="#r0"/><use x="177" y="58" xlink:href="#r0"/><use x="184" y="58" xlink:href="#r0"/><use x="191" y="58" xlink:href="#r0"/><use x="205" y="58" xlink:href="#r0"/><use x="37" y="65" xlink:href="#r0"/><use x="51" y="65" xlink:href="#r0"/><use x="58" y="65" xlink:href="#r0"/><use x="65" y="65" xlink:href="#r0"/><use x="79" y="65" xlink:href="#r0"/><use x="93" y="65" xlink:href="#r0"/><use x="121" y="65" xlink:href="#r0"/><use x="128" y="65" xlink:href="#r0"/><use x="135" y="65" xlink:href="#r0"/><use x="142" y="65" xlink:href="#r0"/><use x="163" y="65" xlink:href="#r0"/><use x="177" y="65" xlink:href="#r0"/><use x="184" y="65" xlink:href="#r0"/><use x="191" y="65" xlink:href="#r0"/><use x="205" y="65" xlink:href="#r0"/><use x="37" y="72" xlink:href="#r0"/><use x="79" y="72" xlink:href="#r0"/><use x="107" y="72" xlink:href="#r0"/><use x="121" y="72" xlink:href="#r0"/><use x="135" y="72" xlink:href="#r0"/><use x="163" y="72" xlink:href="#r0"/><use x="205" y="72" xlink:href="#r0"/><use x="37" y="79" xlink:href="#r0"/><use x="44" y="79" xlink:href="#r0"/><use x="51" y="79" xlink:href="#r0"/><use x="58" y="79" xlink:href="#r0"/><use x="65" y="79" xlink:href="#r0"/><use x="72" y="79" xlink:href="#r0"/><use x="79" y="79" xlink:href="#r0"/><use x="93" y="79" xlink:href="#r0"/><use x="107" y="79" xlink:href="#r0"/><use x="121" y="79" xlink:href="#r0"/><use x="135" y="79" xlink:href="#r0"/><use x="149" y="79" xlink:href="#r0"/><use x="163" y="79" xlink:href="#r0"/><use x="170" y="79" xlink:href="#r0"/><use x="177" y="79" xlink:href="#r0"/><use x="184" y="79" xlink:href="#r0"/><use x="191" y="79" xlink:href="#r0"/><use x="198" y="79" xlink:href="#r0"/><use x="205" y="79" xlink:href="#r0"/><use x="107" y="86" xlink:href="#r0"/><use x="114" y="86" xlink:href="#r0"/><use x="121" y="86" xlink:href="#r0"/><use x="142" y="86" xlink:href="#r0"/><use x="37" y="93" xlink:href="#r0"/><use x="44" y="93" xlink:href="#r0"/><use x="51" y="93" xlink:href="#r0"/><use x="58" y="93" xlink:href="#r0"/><use x="79" y="93" xlink:href="#r0"/><use x="93" y="93" xlink:href="#r0"/><use x="107" y="93" xlink:href="#r0"/><use x="121" y="93" xlink:href="#r0"/><use x="135" y="93" xlink:href="#r0"/><use x="142" y="93" xlink:href="#r0"/><use x="149" y="93" xlink:href="#r0"/><use x="156" y="93" xlink:href="#r0"/><use x="177" y="93" xlink:href="#r0"/><use x="184" y="93" xlink:href="#r0"/><use x="191" y="93" xlink:href="#r0"/><use x="205" y="93" xlink:href="#r0"/><use x="44" y="100" xlink:href="#r0"/><use x="72" y="100" xlink:href="#r0"/><use x="93" y="100" xlink:href="#r0"/><use x="107" y="100" xlink:href="#r0"/><use x="114" y="100" xlink:href="#r0"/><use x="128" y="100" xlink:href="#r0"/><use x="149" y="100" xlink:href="#r0"/><use x="170" y="100" xlink:href="#r0"/><use x="198" y="100" xlink:href="#r0"/><use x="37" y="107" xlink:href="#r0"/><use x="44" y="107" xlink:href="#r0"/><use x="51" y="107" xlink:href="#r0"/><use x="65" y="107" xlink:href="#r0"/><use x="79" y="107" xlink:href="#r0"/><use x="86" y="107" xlink:href="#r0"/><use x="93" y="107" xlink:href="#r0"/><use x="100" y="107" xlink:href="#r0"/><use x="107" y="107" xlink:href="#r0"/><use x="114" y="107" xlink:href="#r0"/><use x="121" y="107" xlink:href="#r0"/><use x="149" y="107" xlink:href="#r0"/><use x="156" y="107" xlink:href="#r0"/><use x="44" y="114" xlink:href="#r0"/><use x="51" y="114" xlink:href="#r0"/><use x="58" y="114" xlink:href="#r0"/><use x="72" y="114" xlink:href="#r0"/><use x="100" y="114" xlink:href="#r0"/><use x="107" y="114" xlink:href="#r0"/><use x="128" y="114" xlink:href="#r0"/><use x="135" y="114" xlink:href="#r0"/><use x="142" y="114" xlink:href="#r0"/><use x="156" y="114" xlink:href="#r0"/><use x="184" y="114" xlink:href="#r0"/><use x="191" y="114" xlink:href="#r0"/><use x="44" y="121" xlink:href="#r0"/><use x="58" y="121" xlink:href="#r0"/><use x="79" y="121" xlink:href="#r0"/><use x="86" y="121" xlink:href="#r0"/><use x="100" y="121" xlink:href="#r0"/><use x="107" y="121" xlink:href="#r0"/><use x="114" y="121" xlink:href="#r0"/><use x="121" y="121" xlink:href="#r0"/><use x="128" y="121" xlink:href="#r0"/><use x="156" y="121" xlink:href="#r0"/><use x="163" y="121" xlink:href="#r0"/><use x="177" y="121" xlink:href="#r0"/><use x="191" y="121" xlink:href="#r0"/><use x="198" y="121" xlink:href="#r0"/><use x="205" y="121" xlink:href="#r0"/><use x="93" y="128" xlink:href="#r0"/><use x="121" y="128" xlink:href="#r0"/><use x="128" y="128" xlink:href="#r0"/><use x="135" y="128" xlink:href="#r0"/><use x="142" y="128" xlink:href="#r0"/><use x="149" y="128" xlink:href="#r0"/><use x="156" y="128" xlink:href="#r0"/><use x="163" y="128" xlink:href="#r0"/><use x="170" y="128" xlink:href="#r0"/><use x="177" y="128" xlink:href="#r0"/><use x="205" y="128" xlink:href="#r0"/><use x="44" y="135" xlink:href="#r0"/><use x="65" y="135" xlink:href="#r0"/><use x="72" y="135" xlink:href="#r0"/><use x="79" y="135" xlink:href="#r0"/><use x="86" y="135" xlink:href="#r0"/><use x="100" y="135" xlink:href="#r0"/><use x="107" y="135" xlink:href="#r0"/><use x="121" y="135" xlink:href="#r0"/><use x="135" y="135" xlink:href="#r0"/><use x="177" y="135" xlink:href="#r0"/><use x="191" y="135" xlink:href="#r0"/><use x="198" y="135" xlink:href="#r0"/><use x="37" y="142" xlink:href="#r0"/><use x="51" y="142" xlink:href="#r0"/><use x="58" y="142" xlink:href="#r0"/><use x="65" y="142" xlink:href="#r0"/><use x="72" y="142" xlink:href="#r0"/><use x="86" y="142" xlink:href="#r0"/><use x="100" y="142" xlink:href="#r0"/><use x="114" y="142" xlink:href="#r0"/><use x="121" y="142" xlink:href="#r0"/><use x="135" y="142" xlink:href="#r0"/><use x="149" y="142" xlink:href="#r0"/><use x="156" y="142" xlink:href="#r0"/><use x="170" y="142" xlink:href="#r0"/><use x="177" y="142" xlink:href="#r0"/><use x="205" y="142" xlink:href="#r0"/><use x="65" y="149" xlink:href="#r0"/><use x="79" y="149" xlink:href="#r0"/><use x="107" y="149" xlink:href="#r0"/><use x="128" y="149" xlink:href="#r0"/><use x="142" y="149" xlink:href="#r0"/><use x="149" y="149" xlink:href="#r0"/><use x="156" y="149" xlink:href="#r0"/><use x="163" y="149" xlink:href="#r0"/><use x="170" y="149" xlink:href="#r0"/><use x="177" y="149" xlink:href="#r0"/><use x="184" y="149" xlink:href="#r0"/><use x="191" y="149" xlink:href="#r0"/><use x="198" y="149" xlink:href="#r0"/><use x="205" y="149" xlink:href="#r0"/><use x="93" y="156" xlink:href="#r0"/><use x="107" y="156" xlink:href="#r0"/><use x="114" y="156" xlink:href="#r0"/><use x="121" y="156" xlink:href="#r0"/><use x="128" y="156" xlink:href="#r0"/><use x="149" y="156" xlink:href="#r0"/><use x="177" y="156" xlink:href="#r0"/><use x="191" y="156" xlink:href="#r0"/><use x="205" y="156" xlink:href="#r0"/><use x="37" y="163" xlink:href="#r0"/><use x="44" y="163" xlink:href="#r0"/><use x="51" y="163" xlink:href="#r0"/><use x="58" y="163" xlink:href="#r0"/><use x="65" y="163" xlink:href="#r0"/><use x="72" y="163" xlink:href="#r0"/><use x="79" y="163" xlink:href="#r0"/><use x="100" y="163" xlink:href="#r0"/><use x="121" y="163" xlink:href="#r0"/><use x="135" y="163" xlink:href="#r0"/><use x="149" y="163" xlink:href="#r0"/><use x="163" y="163" xlink:href="#r0"/><use x="177" y="163" xlink:href="#r0"/><use x="191" y="163" xlink:href="#r0"/><use x="198" y="163" xlink:href="#r0"/><use x="205" y="163" xlink:href="#r0"/><use x="37" y="170" xlink:href="#r0"/><use x="79" y="170" xlink:href="#r0"/><use x="107" y="170" xlink:href="#r0"/><use x="135" y="170" xlink:href="#r0"/><use x="142" y="170" xlink:href="#r0"/><use x="149" y="170" xlink:href="#r0"/><use x="177" y="170" xlink:href="#r0"/><use x="37" y="177" xlink:href="#r0"/><use x="51" y="177" xlink:href="#r0"/><use x="58" y="177" xlink:href="#r0"/><use x="65" y="177" xlink:href="#r0"/><use x="79" y="177" xlink:href="#r0"/><use x="100" y="177" xlink:href="#r0"/><use x="107" y="177" xlink:href="#r0"/><use x="114" y="177" xlink:href="#r0"/><use x="121" y="177" xlink:href="#r0"/><use x="135" y="177" xlink:href="#r0"/><use x="149" y="177" xlink:href="#r0"/><use x="156" y="177" xlink:href="#r0"/><use x="163" y="177" xlink:href="#r0"/><use x="170" y="177" xlink:href="#r0"/><use x="177" y="177" xlink:href="#r0"/><use x="184" y="177" xlink:href="#r0"/><use x="198" y="177" xlink:href="#r0"/><use x="205" y="177" xlink:href="#r0"/><use x="37" y="184" xlink:href="#r0"/><use x="51" y="184" xlink:href="#r0"/><use x="58" y="184" xlink:href="#r0"/><use x="65" y="184" xlink:href="#r0"/><use x="79" y="184" xlink:href="#r0"/><use x="93" y="184" xlink:href="#r0"/><use x="100" y="184" xlink:href="#r0"/><use x="114" y="184" xlink:href="#r0"/><use x="142" y="184" xlink:href="#r0"/><use x="149" y="184" xlink:href="#r0"/><use x="156" y="184" xlink:href="#r0"/><use x="163" y="184" xlink:href="#r0"/><use x="177" y="184" xlink:href="#r0"/><use x="184" y="184" xlink:href="#r0"/><use x="191" y="184" xlink:href="#r0"/><use x="198" y="184" xlink:href="#r0"/><use x="205" y="184" xlink:href="#r0"/><use x="37" y="191" xlink:href="#r0"/><use x="51" y="191" xlink:href="#r0"/><use x="58" y="191" xlink:href="#r0"/><use x="65" y="191" xlink:href="#r0"/><use x="79" y="191" xlink:href="#r0"/><use x="93" y="191" xlink:href="#r0"/><use x="114" y="191" xlink:href="#r0"/><use x="156" y="191" xlink:href="#r0"/><use x="163" y="191" xlink:href="#r0"/><use x="177" y="191" xlink:href="#r0"/><use x="191" y="191" xlink:href="#r0"/><use x="198" y="191" xlink:href="#r0"/><use x="37" y="198" xlink:href="#r0"/><use x="79" y="198" xlink:href="#r0"/><use x="93" y="198" xlink:href="#r0"/><use x="100" y="198" xlink:href="#r0"/><use x="114" y="198" xlink:href="#r0"/><use x="121" y="198" xlink:href="#r0"/><use x="128" y="198" xlink:href="#r0"/><use x="135" y="198" xlink:href="#r0"/><use x="156" y="198" xlink:href="#r0"/><use x="177" y="198" xlink:href="#r0"/><use x="191" y="198" xlink:href="#r0"/><use x="37" y="205" xlink:href="#r0"/><use x="44" y="205" xlink:href="#r0"/><use x="51" y="205" xlink:href="#r0"/><use x="58" y="205" xlink:href="#r0"/><use x="65" y="205" xlink:href="#r0"/><use x="72" y="205" xlink:href="#r0"/><use x="79" y="205" xlink:href="#r0"/><use x="93" y="205" xlink:href="#r0"/><use x="107" y="205" xlink:href="#r0"/><use x="114" y="205" xlink:href="#r0"/><use x="121" y="205" xlink:href="#r0"/><use x="128" y="205" xlink:href="#r0"/><use x="135" y="205" xlink:href="#r0"/><use x="156" y="205" xlink:href="#r0"/><use x="163" y="205" xlink:href="#r0"/><use x="170" y="205" xlink:href="#r0"/><use x="177" y="205" xlink:href="#r0"/><use x="184" y="205" xlink:href="#r0"/><use x="191" y="205" xlink:href="#r0"/><use x="198" y="205" xlink:href="#r0"/><use x="205" y="205" xlink:href="#r0"/></svg>
